<mxfile host="app.diagrams.net" modified="2023-08-30T21:00:05.623Z" agent="Mozilla/5.0 (Windows NT 10.0; Win64; x64) AppleWebKit/537.36 (KHTML, like Gecko) Chrome/116.0.0.0 Safari/537.36" etag="9pHhwiujJQsai8wxJ6I0" version="21.7.0" type="github">
  <diagram id="C5RBs43oDa-KdzZeNtuy" name="Page-1">
    <mxGraphModel dx="794" dy="702" grid="1" gridSize="10" guides="1" tooltips="1" connect="1" arrows="1" fold="1" page="1" pageScale="1" pageWidth="827" pageHeight="1169" math="0" shadow="0">
      <root>
        <mxCell id="WIyWlLk6GJQsqaUBKTNV-0" />
        <mxCell id="WIyWlLk6GJQsqaUBKTNV-1" parent="WIyWlLk6GJQsqaUBKTNV-0" />
        <mxCell id="zkfFHV4jXpPFQw0GAbJ--0" value="tb_clientes" style="swimlane;fontStyle=0;align=center;verticalAlign=top;childLayout=stackLayout;horizontal=1;startSize=26;horizontalStack=0;resizeParent=1;resizeLast=0;collapsible=1;marginBottom=0;rounded=0;shadow=0;strokeWidth=1;fontFamily=Arial;" parent="WIyWlLk6GJQsqaUBKTNV-1" vertex="1">
          <mxGeometry x="20" y="40" width="188" height="430" as="geometry">
            <mxRectangle x="230" y="140" width="160" height="26" as="alternateBounds" />
          </mxGeometry>
        </mxCell>
        <mxCell id="zkfFHV4jXpPFQw0GAbJ--1" value="- codcliente: INT" style="text;align=left;verticalAlign=top;spacingLeft=4;spacingRight=4;overflow=hidden;rotatable=0;points=[[0,0.5],[1,0.5]];portConstraint=eastwest;fontFamily=Arial;" parent="zkfFHV4jXpPFQw0GAbJ--0" vertex="1">
          <mxGeometry y="26" width="188" height="26" as="geometry" />
        </mxCell>
        <mxCell id="zkfFHV4jXpPFQw0GAbJ--2" value="+ nomecli: VARCHAR (50)" style="text;align=left;verticalAlign=top;spacingLeft=4;spacingRight=4;overflow=hidden;rotatable=0;points=[[0,0.5],[1,0.5]];portConstraint=eastwest;rounded=0;shadow=0;html=0;fontFamily=Arial;" parent="zkfFHV4jXpPFQw0GAbJ--0" vertex="1">
          <mxGeometry y="52" width="188" height="26" as="geometry" />
        </mxCell>
        <mxCell id="zkfFHV4jXpPFQw0GAbJ--3" value="+ telefonecli: BIGINT (11)" style="text;align=left;verticalAlign=top;spacingLeft=4;spacingRight=4;overflow=hidden;rotatable=0;points=[[0,0.5],[1,0.5]];portConstraint=eastwest;rounded=0;shadow=0;html=0;fontFamily=Arial;" parent="zkfFHV4jXpPFQw0GAbJ--0" vertex="1">
          <mxGeometry y="78" width="188" height="26" as="geometry" />
        </mxCell>
        <mxCell id="_zRHZnOcNi4ueuMIeB0U-4" value="&amp;nbsp;+&amp;nbsp; cpfcli: BIGINT (12)" style="text;html=1;align=left;verticalAlign=middle;resizable=0;points=[];autosize=1;strokeColor=none;fillColor=none;" parent="zkfFHV4jXpPFQw0GAbJ--0" vertex="1">
          <mxGeometry y="104" width="188" height="30" as="geometry" />
        </mxCell>
        <mxCell id="_zRHZnOcNi4ueuMIeB0U-5" value="&amp;nbsp;- senhacli: VARCHAR (32)" style="text;html=1;align=left;verticalAlign=middle;resizable=0;points=[];autosize=1;strokeColor=none;fillColor=none;" parent="zkfFHV4jXpPFQw0GAbJ--0" vertex="1">
          <mxGeometry y="134" width="188" height="30" as="geometry" />
        </mxCell>
        <mxCell id="_zRHZnOcNi4ueuMIeB0U-6" value="&amp;nbsp;+ usuariocli: VARCHAR (50)" style="text;html=1;align=left;verticalAlign=middle;resizable=0;points=[];autosize=1;strokeColor=none;fillColor=none;" parent="zkfFHV4jXpPFQw0GAbJ--0" vertex="1">
          <mxGeometry y="164" width="188" height="30" as="geometry" />
        </mxCell>
        <mxCell id="_zRHZnOcNi4ueuMIeB0U-7" value="&amp;nbsp;+ emailcli: VARCHAR (150)" style="text;html=1;align=left;verticalAlign=middle;resizable=0;points=[];autosize=1;strokeColor=none;fillColor=none;" parent="zkfFHV4jXpPFQw0GAbJ--0" vertex="1">
          <mxGeometry y="194" width="188" height="30" as="geometry" />
        </mxCell>
        <mxCell id="sKSMDvsiIj9anLWhYjpV-0" value="&amp;nbsp;- tipocadastro: VARCHAR (1)" style="text;html=1;align=left;verticalAlign=middle;resizable=0;points=[];autosize=1;strokeColor=none;fillColor=none;" parent="zkfFHV4jXpPFQw0GAbJ--0" vertex="1">
          <mxGeometry y="224" width="188" height="30" as="geometry" />
        </mxCell>
        <mxCell id="sKSMDvsiIj9anLWhYjpV-1" value="&amp;nbsp;- ativo: VARCHAR (1)" style="text;html=1;align=left;verticalAlign=middle;resizable=0;points=[];autosize=1;strokeColor=none;fillColor=none;" parent="zkfFHV4jXpPFQw0GAbJ--0" vertex="1">
          <mxGeometry y="254" width="188" height="30" as="geometry" />
        </mxCell>
        <mxCell id="zkfFHV4jXpPFQw0GAbJ--4" value="" style="line;html=1;strokeWidth=1;align=left;verticalAlign=middle;spacingTop=-1;spacingLeft=3;spacingRight=3;rotatable=0;labelPosition=right;points=[];portConstraint=eastwest;fontFamily=Arial;" parent="zkfFHV4jXpPFQw0GAbJ--0" vertex="1">
          <mxGeometry y="284" width="188" height="16" as="geometry" />
        </mxCell>
        <mxCell id="zkfFHV4jXpPFQw0GAbJ--5" value="cadastrocliente" style="text;align=left;verticalAlign=top;spacingLeft=4;spacingRight=4;overflow=hidden;rotatable=0;points=[[0,0.5],[1,0.5]];portConstraint=eastwest;fontFamily=Arial;" parent="zkfFHV4jXpPFQw0GAbJ--0" vertex="1">
          <mxGeometry y="300" width="188" height="30" as="geometry" />
        </mxCell>
        <mxCell id="89VktyUWKahh6TD7-yZL-41" value="&amp;nbsp; alterarcliente" style="text;html=1;align=left;verticalAlign=middle;resizable=0;points=[];autosize=1;strokeColor=none;fillColor=none;" vertex="1" parent="zkfFHV4jXpPFQw0GAbJ--0">
          <mxGeometry y="330" width="188" height="30" as="geometry" />
        </mxCell>
        <mxCell id="89VktyUWKahh6TD7-yZL-42" value="&amp;nbsp; concliente" style="text;html=1;align=left;verticalAlign=middle;resizable=0;points=[];autosize=1;strokeColor=none;fillColor=none;" vertex="1" parent="zkfFHV4jXpPFQw0GAbJ--0">
          <mxGeometry y="360" width="188" height="30" as="geometry" />
        </mxCell>
        <mxCell id="89VktyUWKahh6TD7-yZL-43" value="&amp;nbsp; excluircliente" style="text;html=1;align=left;verticalAlign=middle;resizable=0;points=[];autosize=1;strokeColor=none;fillColor=none;" vertex="1" parent="zkfFHV4jXpPFQw0GAbJ--0">
          <mxGeometry y="390" width="188" height="30" as="geometry" />
        </mxCell>
        <mxCell id="zkfFHV4jXpPFQw0GAbJ--17" value="tb_enderecos" style="swimlane;fontStyle=0;align=center;verticalAlign=top;childLayout=stackLayout;horizontal=1;startSize=26;horizontalStack=0;resizeParent=1;resizeLast=0;collapsible=1;marginBottom=0;rounded=0;shadow=0;strokeWidth=1;fontFamily=Arial;" parent="WIyWlLk6GJQsqaUBKTNV-1" vertex="1">
          <mxGeometry x="430" y="50" width="230" height="310" as="geometry">
            <mxRectangle x="550" y="140" width="160" height="26" as="alternateBounds" />
          </mxGeometry>
        </mxCell>
        <mxCell id="zkfFHV4jXpPFQw0GAbJ--18" value="- codendereco: INT" style="text;align=left;verticalAlign=top;spacingLeft=4;spacingRight=4;overflow=hidden;rotatable=0;points=[[0,0.5],[1,0.5]];portConstraint=eastwest;fontFamily=Arial;" parent="zkfFHV4jXpPFQw0GAbJ--17" vertex="1">
          <mxGeometry y="26" width="230" height="26" as="geometry" />
        </mxCell>
        <mxCell id="zkfFHV4jXpPFQw0GAbJ--19" value="+ cepend: INT" style="text;align=left;verticalAlign=top;spacingLeft=4;spacingRight=4;overflow=hidden;rotatable=0;points=[[0,0.5],[1,0.5]];portConstraint=eastwest;rounded=0;shadow=0;html=0;fontFamily=Arial;" parent="zkfFHV4jXpPFQw0GAbJ--17" vertex="1">
          <mxGeometry y="52" width="230" height="26" as="geometry" />
        </mxCell>
        <mxCell id="zkfFHV4jXpPFQw0GAbJ--20" value="+ numeroend: INT" style="text;align=left;verticalAlign=top;spacingLeft=4;spacingRight=4;overflow=hidden;rotatable=0;points=[[0,0.5],[1,0.5]];portConstraint=eastwest;rounded=0;shadow=0;html=0;fontFamily=Arial;" parent="zkfFHV4jXpPFQw0GAbJ--17" vertex="1">
          <mxGeometry y="78" width="230" height="26" as="geometry" />
        </mxCell>
        <mxCell id="zkfFHV4jXpPFQw0GAbJ--21" value="+ bairroend: VARCHAR (100)" style="text;align=left;verticalAlign=top;spacingLeft=4;spacingRight=4;overflow=hidden;rotatable=0;points=[[0,0.5],[1,0.5]];portConstraint=eastwest;rounded=0;shadow=0;html=0;fontFamily=Arial;" parent="zkfFHV4jXpPFQw0GAbJ--17" vertex="1">
          <mxGeometry y="104" width="230" height="26" as="geometry" />
        </mxCell>
        <mxCell id="zkfFHV4jXpPFQw0GAbJ--22" value="+ ruaend: VARCHAR (100)" style="text;align=left;verticalAlign=top;spacingLeft=4;spacingRight=4;overflow=hidden;rotatable=0;points=[[0,0.5],[1,0.5]];portConstraint=eastwest;rounded=0;shadow=0;html=0;fontFamily=Arial;" parent="zkfFHV4jXpPFQw0GAbJ--17" vertex="1">
          <mxGeometry y="130" width="230" height="26" as="geometry" />
        </mxCell>
        <mxCell id="sKSMDvsiIj9anLWhYjpV-6" value="&amp;nbsp;+&amp;nbsp; complementoend: VARCHAR (255)" style="text;html=1;align=left;verticalAlign=middle;resizable=0;points=[];autosize=1;strokeColor=none;fillColor=none;" parent="zkfFHV4jXpPFQw0GAbJ--17" vertex="1">
          <mxGeometry y="156" width="230" height="30" as="geometry" />
        </mxCell>
        <mxCell id="sKSMDvsiIj9anLWhYjpV-8" value="&amp;nbsp;- fk_codcidades: INT" style="text;html=1;align=left;verticalAlign=middle;resizable=0;points=[];autosize=1;strokeColor=none;fillColor=none;" parent="zkfFHV4jXpPFQw0GAbJ--17" vertex="1">
          <mxGeometry y="186" width="230" height="30" as="geometry" />
        </mxCell>
        <mxCell id="sKSMDvsiIj9anLWhYjpV-9" value="&amp;nbsp;- fk_codcidades: INT" style="text;html=1;align=left;verticalAlign=middle;resizable=0;points=[];autosize=1;strokeColor=none;fillColor=none;" parent="zkfFHV4jXpPFQw0GAbJ--17" vertex="1">
          <mxGeometry y="216" width="230" height="30" as="geometry" />
        </mxCell>
        <mxCell id="zkfFHV4jXpPFQw0GAbJ--23" value="" style="line;html=1;strokeWidth=1;align=left;verticalAlign=middle;spacingTop=-1;spacingLeft=3;spacingRight=3;rotatable=0;labelPosition=right;points=[];portConstraint=eastwest;fontFamily=Arial;" parent="zkfFHV4jXpPFQw0GAbJ--17" vertex="1">
          <mxGeometry y="246" width="230" height="14" as="geometry" />
        </mxCell>
        <mxCell id="zkfFHV4jXpPFQw0GAbJ--24" value="Validate" style="text;align=left;verticalAlign=top;spacingLeft=4;spacingRight=4;overflow=hidden;rotatable=0;points=[[0,0.5],[1,0.5]];portConstraint=eastwest;fontFamily=Arial;" parent="zkfFHV4jXpPFQw0GAbJ--17" vertex="1">
          <mxGeometry y="260" width="230" height="20" as="geometry" />
        </mxCell>
        <mxCell id="zkfFHV4jXpPFQw0GAbJ--25" value="Output As Label" style="text;align=left;verticalAlign=top;spacingLeft=4;spacingRight=4;overflow=hidden;rotatable=0;points=[[0,0.5],[1,0.5]];portConstraint=eastwest;fontFamily=Arial;" parent="zkfFHV4jXpPFQw0GAbJ--17" vertex="1">
          <mxGeometry y="280" width="230" height="26" as="geometry" />
        </mxCell>
        <mxCell id="zkfFHV4jXpPFQw0GAbJ--26" value="" style="endArrow=open;shadow=0;strokeWidth=1;rounded=0;endFill=1;edgeStyle=elbowEdgeStyle;elbow=vertical;fontFamily=Arial;" parent="WIyWlLk6GJQsqaUBKTNV-1" source="zkfFHV4jXpPFQw0GAbJ--0" target="zkfFHV4jXpPFQw0GAbJ--17" edge="1">
          <mxGeometry x="0.5" y="41" relative="1" as="geometry">
            <mxPoint x="380" y="192" as="sourcePoint" />
            <mxPoint x="540" y="192" as="targetPoint" />
            <mxPoint x="-40" y="32" as="offset" />
          </mxGeometry>
        </mxCell>
        <mxCell id="zkfFHV4jXpPFQw0GAbJ--27" value="" style="resizable=0;align=left;verticalAlign=bottom;labelBackgroundColor=none;fontSize=12;fontFamily=Arial;" parent="zkfFHV4jXpPFQw0GAbJ--26" connectable="0" vertex="1">
          <mxGeometry x="-1" relative="1" as="geometry">
            <mxPoint y="4" as="offset" />
          </mxGeometry>
        </mxCell>
        <mxCell id="zkfFHV4jXpPFQw0GAbJ--29" value="Endereço de entrega&amp;nbsp; &lt;br&gt;do cliente" style="text;html=1;resizable=0;points=[];;align=center;verticalAlign=middle;labelBackgroundColor=none;rounded=0;shadow=0;strokeWidth=1;fontSize=12;fontFamily=Arial;" parent="zkfFHV4jXpPFQw0GAbJ--26" vertex="1" connectable="0">
          <mxGeometry x="0.5" y="49" relative="1" as="geometry">
            <mxPoint x="-55" y="29" as="offset" />
          </mxGeometry>
        </mxCell>
        <mxCell id="sKSMDvsiIj9anLWhYjpV-3" value="(1, n)" style="text;html=1;align=center;verticalAlign=middle;resizable=0;points=[];autosize=1;strokeColor=none;fillColor=none;" parent="WIyWlLk6GJQsqaUBKTNV-1" vertex="1">
          <mxGeometry x="208" y="180" width="50" height="30" as="geometry" />
        </mxCell>
        <mxCell id="sKSMDvsiIj9anLWhYjpV-4" value="(n, 1)" style="text;html=1;align=center;verticalAlign=middle;resizable=0;points=[];autosize=1;strokeColor=none;fillColor=none;" parent="WIyWlLk6GJQsqaUBKTNV-1" vertex="1">
          <mxGeometry x="380" y="180" width="50" height="30" as="geometry" />
        </mxCell>
        <mxCell id="Uw-wxPxYOpoO7MpuVvoR-0" value="tb_cidades" style="swimlane;fontStyle=0;align=center;verticalAlign=top;childLayout=stackLayout;horizontal=1;startSize=26;horizontalStack=0;resizeParent=1;resizeLast=0;collapsible=1;marginBottom=0;rounded=0;shadow=0;strokeWidth=1;fontFamily=Arial;" parent="WIyWlLk6GJQsqaUBKTNV-1" vertex="1">
          <mxGeometry x="870" y="113" width="210" height="164" as="geometry">
            <mxRectangle x="550" y="140" width="160" height="26" as="alternateBounds" />
          </mxGeometry>
        </mxCell>
        <mxCell id="Uw-wxPxYOpoO7MpuVvoR-1" value="- codcidade: INT" style="text;align=left;verticalAlign=top;spacingLeft=4;spacingRight=4;overflow=hidden;rotatable=0;points=[[0,0.5],[1,0.5]];portConstraint=eastwest;fontFamily=Arial;" parent="Uw-wxPxYOpoO7MpuVvoR-0" vertex="1">
          <mxGeometry y="26" width="210" height="26" as="geometry" />
        </mxCell>
        <mxCell id="Uw-wxPxYOpoO7MpuVvoR-2" value="+ nomecid: VARCHAR (50)" style="text;align=left;verticalAlign=top;spacingLeft=4;spacingRight=4;overflow=hidden;rotatable=0;points=[[0,0.5],[1,0.5]];portConstraint=eastwest;rounded=0;shadow=0;html=0;fontFamily=Arial;" parent="Uw-wxPxYOpoO7MpuVvoR-0" vertex="1">
          <mxGeometry y="52" width="210" height="26" as="geometry" />
        </mxCell>
        <mxCell id="Uw-wxPxYOpoO7MpuVvoR-3" value="+ estadocid: VARCHAR (1)" style="text;align=left;verticalAlign=top;spacingLeft=4;spacingRight=4;overflow=hidden;rotatable=0;points=[[0,0.5],[1,0.5]];portConstraint=eastwest;rounded=0;shadow=0;html=0;fontFamily=Arial;" parent="Uw-wxPxYOpoO7MpuVvoR-0" vertex="1">
          <mxGeometry y="78" width="210" height="26" as="geometry" />
        </mxCell>
        <mxCell id="Uw-wxPxYOpoO7MpuVvoR-9" value="" style="line;html=1;strokeWidth=1;align=left;verticalAlign=middle;spacingTop=-1;spacingLeft=3;spacingRight=3;rotatable=0;labelPosition=right;points=[];portConstraint=eastwest;fontFamily=Arial;" parent="Uw-wxPxYOpoO7MpuVvoR-0" vertex="1">
          <mxGeometry y="104" width="210" height="14" as="geometry" />
        </mxCell>
        <mxCell id="Uw-wxPxYOpoO7MpuVvoR-10" value="Validate" style="text;align=left;verticalAlign=top;spacingLeft=4;spacingRight=4;overflow=hidden;rotatable=0;points=[[0,0.5],[1,0.5]];portConstraint=eastwest;fontFamily=Arial;" parent="Uw-wxPxYOpoO7MpuVvoR-0" vertex="1">
          <mxGeometry y="118" width="210" height="20" as="geometry" />
        </mxCell>
        <mxCell id="Uw-wxPxYOpoO7MpuVvoR-11" value="Output As Label" style="text;align=left;verticalAlign=top;spacingLeft=4;spacingRight=4;overflow=hidden;rotatable=0;points=[[0,0.5],[1,0.5]];portConstraint=eastwest;fontFamily=Arial;" parent="Uw-wxPxYOpoO7MpuVvoR-0" vertex="1">
          <mxGeometry y="138" width="210" height="26" as="geometry" />
        </mxCell>
        <mxCell id="Uw-wxPxYOpoO7MpuVvoR-15" value="(1, n)" style="text;html=1;align=center;verticalAlign=middle;resizable=0;points=[];autosize=1;strokeColor=none;fillColor=none;" parent="WIyWlLk6GJQsqaUBKTNV-1" vertex="1">
          <mxGeometry x="660" y="170" width="50" height="30" as="geometry" />
        </mxCell>
        <mxCell id="Uw-wxPxYOpoO7MpuVvoR-16" value="(n, 1)" style="text;html=1;align=center;verticalAlign=middle;resizable=0;points=[];autosize=1;strokeColor=none;fillColor=none;" parent="WIyWlLk6GJQsqaUBKTNV-1" vertex="1">
          <mxGeometry x="820" y="170" width="50" height="30" as="geometry" />
        </mxCell>
        <mxCell id="Uw-wxPxYOpoO7MpuVvoR-21" value="Cidade de onde&lt;br&gt;pertence o endereço" style="text;html=1;resizable=0;points=[];;align=center;verticalAlign=middle;labelBackgroundColor=none;rounded=0;shadow=0;strokeWidth=1;fontSize=12;fontFamily=Arial;" parent="WIyWlLk6GJQsqaUBKTNV-1" vertex="1" connectable="0">
          <mxGeometry x="769.9988235294118" y="180.00235294117658" as="geometry">
            <mxPoint x="-3" y="1" as="offset" />
          </mxGeometry>
        </mxCell>
        <mxCell id="Uw-wxPxYOpoO7MpuVvoR-22" value="tb_pedidos" style="swimlane;fontStyle=0;align=center;verticalAlign=top;childLayout=stackLayout;horizontal=1;startSize=26;horizontalStack=0;resizeParent=1;resizeLast=0;collapsible=1;marginBottom=0;rounded=0;shadow=0;strokeWidth=1;fontFamily=Arial;" parent="WIyWlLk6GJQsqaUBKTNV-1" vertex="1">
          <mxGeometry x="20" y="568" width="188" height="242" as="geometry">
            <mxRectangle x="230" y="140" width="160" height="26" as="alternateBounds" />
          </mxGeometry>
        </mxCell>
        <mxCell id="Uw-wxPxYOpoO7MpuVvoR-23" value="- codpedido: INT" style="text;align=left;verticalAlign=top;spacingLeft=4;spacingRight=4;overflow=hidden;rotatable=0;points=[[0,0.5],[1,0.5]];portConstraint=eastwest;fontFamily=Arial;" parent="Uw-wxPxYOpoO7MpuVvoR-22" vertex="1">
          <mxGeometry y="26" width="188" height="26" as="geometry" />
        </mxCell>
        <mxCell id="Uw-wxPxYOpoO7MpuVvoR-24" value="+ codtransporte: VARCHAR (50)" style="text;align=left;verticalAlign=top;spacingLeft=4;spacingRight=4;overflow=hidden;rotatable=0;points=[[0,0.5],[1,0.5]];portConstraint=eastwest;rounded=0;shadow=0;html=0;fontFamily=Arial;" parent="Uw-wxPxYOpoO7MpuVvoR-22" vertex="1">
          <mxGeometry y="52" width="188" height="26" as="geometry" />
        </mxCell>
        <mxCell id="Uw-wxPxYOpoO7MpuVvoR-25" value="+ tipoped: VARCHAR (1)" style="text;align=left;verticalAlign=top;spacingLeft=4;spacingRight=4;overflow=hidden;rotatable=0;points=[[0,0.5],[1,0.5]];portConstraint=eastwest;rounded=0;shadow=0;html=0;fontFamily=Arial;" parent="Uw-wxPxYOpoO7MpuVvoR-22" vertex="1">
          <mxGeometry y="78" width="188" height="26" as="geometry" />
        </mxCell>
        <mxCell id="Uw-wxPxYOpoO7MpuVvoR-26" value="&amp;nbsp;+ pagamento: VARCHAR (1)" style="text;html=1;align=left;verticalAlign=middle;resizable=0;points=[];autosize=1;strokeColor=none;fillColor=none;" parent="Uw-wxPxYOpoO7MpuVvoR-22" vertex="1">
          <mxGeometry y="104" width="188" height="30" as="geometry" />
        </mxCell>
        <mxCell id="Uw-wxPxYOpoO7MpuVvoR-27" value="&amp;nbsp;+ valor_entrega: FLOAT (5,2)" style="text;html=1;align=left;verticalAlign=middle;resizable=0;points=[];autosize=1;strokeColor=none;fillColor=none;" parent="Uw-wxPxYOpoO7MpuVvoR-22" vertex="1">
          <mxGeometry y="134" width="188" height="30" as="geometry" />
        </mxCell>
        <mxCell id="Uw-wxPxYOpoO7MpuVvoR-28" value="&amp;nbsp;- fk_codclientes:INT" style="text;html=1;align=left;verticalAlign=middle;resizable=0;points=[];autosize=1;strokeColor=none;fillColor=none;" parent="Uw-wxPxYOpoO7MpuVvoR-22" vertex="1">
          <mxGeometry y="164" width="188" height="30" as="geometry" />
        </mxCell>
        <mxCell id="Uw-wxPxYOpoO7MpuVvoR-32" value="" style="line;html=1;strokeWidth=1;align=left;verticalAlign=middle;spacingTop=-1;spacingLeft=3;spacingRight=3;rotatable=0;labelPosition=right;points=[];portConstraint=eastwest;fontFamily=Arial;" parent="Uw-wxPxYOpoO7MpuVvoR-22" vertex="1">
          <mxGeometry y="194" width="188" height="16" as="geometry" />
        </mxCell>
        <mxCell id="Uw-wxPxYOpoO7MpuVvoR-33" value="Purchase Parking Pass" style="text;align=left;verticalAlign=top;spacingLeft=4;spacingRight=4;overflow=hidden;rotatable=0;points=[[0,0.5],[1,0.5]];portConstraint=eastwest;fontFamily=Arial;" parent="Uw-wxPxYOpoO7MpuVvoR-22" vertex="1">
          <mxGeometry y="210" width="188" height="32" as="geometry" />
        </mxCell>
        <mxCell id="Uw-wxPxYOpoO7MpuVvoR-34" value="" style="endArrow=open;shadow=0;strokeWidth=1;rounded=0;endFill=1;edgeStyle=elbowEdgeStyle;elbow=vertical;fontFamily=Arial;entryX=0.75;entryY=0;entryDx=0;entryDy=0;exitX=0.25;exitY=1;exitDx=0;exitDy=0;" parent="WIyWlLk6GJQsqaUBKTNV-1" source="zkfFHV4jXpPFQw0GAbJ--0" target="Uw-wxPxYOpoO7MpuVvoR-22" edge="1">
          <mxGeometry x="0.5" y="41" relative="1" as="geometry">
            <mxPoint x="40" y="390" as="sourcePoint" />
            <mxPoint x="120" y="490" as="targetPoint" />
            <mxPoint x="-40" y="32" as="offset" />
            <Array as="points">
              <mxPoint x="110" y="510" />
            </Array>
          </mxGeometry>
        </mxCell>
        <mxCell id="Uw-wxPxYOpoO7MpuVvoR-35" value="" style="resizable=0;align=left;verticalAlign=bottom;labelBackgroundColor=none;fontSize=12;fontFamily=Arial;" parent="Uw-wxPxYOpoO7MpuVvoR-34" connectable="0" vertex="1">
          <mxGeometry x="-1" relative="1" as="geometry">
            <mxPoint y="4" as="offset" />
          </mxGeometry>
        </mxCell>
        <mxCell id="Uw-wxPxYOpoO7MpuVvoR-37" value="Informações básicas&lt;br&gt;do pedido" style="text;html=1;resizable=0;points=[];;align=center;verticalAlign=middle;labelBackgroundColor=none;rounded=0;shadow=0;strokeWidth=1;fontSize=12;fontFamily=Arial;" parent="WIyWlLk6GJQsqaUBKTNV-1" vertex="1" connectable="0">
          <mxGeometry x="129.99882352941177" y="490.0023529411766" as="geometry">
            <mxPoint x="-1" y="1" as="offset" />
          </mxGeometry>
        </mxCell>
        <mxCell id="Uw-wxPxYOpoO7MpuVvoR-38" value="(1, n)" style="text;html=1;align=center;verticalAlign=middle;resizable=0;points=[];autosize=1;strokeColor=none;fillColor=none;" parent="WIyWlLk6GJQsqaUBKTNV-1" vertex="1">
          <mxGeometry x="20" y="460" width="50" height="30" as="geometry" />
        </mxCell>
        <mxCell id="Uw-wxPxYOpoO7MpuVvoR-39" value="(n, 1)" style="text;html=1;align=center;verticalAlign=middle;resizable=0;points=[];autosize=1;strokeColor=none;fillColor=none;" parent="WIyWlLk6GJQsqaUBKTNV-1" vertex="1">
          <mxGeometry x="158" y="538" width="50" height="30" as="geometry" />
        </mxCell>
        <mxCell id="Uw-wxPxYOpoO7MpuVvoR-40" value="tb_pedidos_produtos" style="swimlane;fontStyle=0;align=center;verticalAlign=top;childLayout=stackLayout;horizontal=1;startSize=26;horizontalStack=0;resizeParent=1;resizeLast=0;collapsible=1;marginBottom=0;rounded=0;shadow=0;strokeWidth=1;fontFamily=Arial;" parent="WIyWlLk6GJQsqaUBKTNV-1" vertex="1">
          <mxGeometry x="430" y="530" width="188" height="220" as="geometry">
            <mxRectangle x="230" y="140" width="160" height="26" as="alternateBounds" />
          </mxGeometry>
        </mxCell>
        <mxCell id="Uw-wxPxYOpoO7MpuVvoR-41" value="- codpedido_prod: INT" style="text;align=left;verticalAlign=top;spacingLeft=4;spacingRight=4;overflow=hidden;rotatable=0;points=[[0,0.5],[1,0.5]];portConstraint=eastwest;fontFamily=Arial;" parent="Uw-wxPxYOpoO7MpuVvoR-40" vertex="1">
          <mxGeometry y="26" width="188" height="26" as="geometry" />
        </mxCell>
        <mxCell id="Uw-wxPxYOpoO7MpuVvoR-42" value="+ precoped: FLOAT (5,2)" style="text;align=left;verticalAlign=top;spacingLeft=4;spacingRight=4;overflow=hidden;rotatable=0;points=[[0,0.5],[1,0.5]];portConstraint=eastwest;rounded=0;shadow=0;html=0;fontFamily=Arial;" parent="Uw-wxPxYOpoO7MpuVvoR-40" vertex="1">
          <mxGeometry y="52" width="188" height="26" as="geometry" />
        </mxCell>
        <mxCell id="Uw-wxPxYOpoO7MpuVvoR-43" value="+ quantidadeped: FLOAT (3,3)" style="text;align=left;verticalAlign=top;spacingLeft=4;spacingRight=4;overflow=hidden;rotatable=0;points=[[0,0.5],[1,0.5]];portConstraint=eastwest;rounded=0;shadow=0;html=0;fontFamily=Arial;" parent="Uw-wxPxYOpoO7MpuVvoR-40" vertex="1">
          <mxGeometry y="78" width="188" height="26" as="geometry" />
        </mxCell>
        <mxCell id="Uw-wxPxYOpoO7MpuVvoR-44" value="&amp;nbsp;-&amp;nbsp; fk_codpedidos: INT" style="text;html=1;align=left;verticalAlign=middle;resizable=0;points=[];autosize=1;strokeColor=none;fillColor=none;" parent="Uw-wxPxYOpoO7MpuVvoR-40" vertex="1">
          <mxGeometry y="104" width="188" height="30" as="geometry" />
        </mxCell>
        <mxCell id="Uw-wxPxYOpoO7MpuVvoR-45" value="&amp;nbsp;- fk_codprodutos: INT" style="text;html=1;align=left;verticalAlign=middle;resizable=0;points=[];autosize=1;strokeColor=none;fillColor=none;" parent="Uw-wxPxYOpoO7MpuVvoR-40" vertex="1">
          <mxGeometry y="134" width="188" height="30" as="geometry" />
        </mxCell>
        <mxCell id="Uw-wxPxYOpoO7MpuVvoR-50" value="" style="line;html=1;strokeWidth=1;align=left;verticalAlign=middle;spacingTop=-1;spacingLeft=3;spacingRight=3;rotatable=0;labelPosition=right;points=[];portConstraint=eastwest;fontFamily=Arial;" parent="Uw-wxPxYOpoO7MpuVvoR-40" vertex="1">
          <mxGeometry y="164" width="188" height="16" as="geometry" />
        </mxCell>
        <mxCell id="Uw-wxPxYOpoO7MpuVvoR-51" value="Purchase Parking Pass" style="text;align=left;verticalAlign=top;spacingLeft=4;spacingRight=4;overflow=hidden;rotatable=0;points=[[0,0.5],[1,0.5]];portConstraint=eastwest;fontFamily=Arial;" parent="Uw-wxPxYOpoO7MpuVvoR-40" vertex="1">
          <mxGeometry y="180" width="188" height="30" as="geometry" />
        </mxCell>
        <mxCell id="Uw-wxPxYOpoO7MpuVvoR-52" value="" style="endArrow=open;shadow=0;strokeWidth=1;rounded=0;endFill=1;edgeStyle=elbowEdgeStyle;elbow=vertical;fontFamily=Arial;" parent="WIyWlLk6GJQsqaUBKTNV-1" edge="1">
          <mxGeometry x="0.5" y="41" relative="1" as="geometry">
            <mxPoint x="208" y="640.9399999999999" as="sourcePoint" />
            <mxPoint x="430" y="640.9399999999999" as="targetPoint" />
            <mxPoint x="-40" y="32" as="offset" />
          </mxGeometry>
        </mxCell>
        <mxCell id="Uw-wxPxYOpoO7MpuVvoR-53" value="" style="resizable=0;align=left;verticalAlign=bottom;labelBackgroundColor=none;fontSize=12;fontFamily=Arial;" parent="Uw-wxPxYOpoO7MpuVvoR-52" connectable="0" vertex="1">
          <mxGeometry x="-1" relative="1" as="geometry">
            <mxPoint y="4" as="offset" />
          </mxGeometry>
        </mxCell>
        <mxCell id="Uw-wxPxYOpoO7MpuVvoR-57" value="" style="endArrow=open;shadow=0;strokeWidth=1;rounded=0;endFill=1;edgeStyle=elbowEdgeStyle;elbow=vertical;fontFamily=Arial;" parent="WIyWlLk6GJQsqaUBKTNV-1" edge="1">
          <mxGeometry x="0.5" y="41" relative="1" as="geometry">
            <mxPoint x="660" y="199" as="sourcePoint" />
            <mxPoint x="870" y="198.81999999999994" as="targetPoint" />
            <mxPoint x="-40" y="32" as="offset" />
          </mxGeometry>
        </mxCell>
        <mxCell id="Uw-wxPxYOpoO7MpuVvoR-58" value="" style="resizable=0;align=left;verticalAlign=bottom;labelBackgroundColor=none;fontSize=12;fontFamily=Arial;" parent="Uw-wxPxYOpoO7MpuVvoR-57" connectable="0" vertex="1">
          <mxGeometry x="-1" relative="1" as="geometry">
            <mxPoint y="4" as="offset" />
          </mxGeometry>
        </mxCell>
        <mxCell id="Uw-wxPxYOpoO7MpuVvoR-59" value="Relátorio para o&lt;br&gt;carrinho de compras" style="text;html=1;resizable=0;points=[];;align=center;verticalAlign=middle;labelBackgroundColor=none;rounded=0;shadow=0;strokeWidth=1;fontSize=12;fontFamily=Arial;" parent="WIyWlLk6GJQsqaUBKTNV-1" vertex="1" connectable="0">
          <mxGeometry x="319.99882352941177" y="620.0023529411766" as="geometry">
            <mxPoint x="-1" y="1" as="offset" />
          </mxGeometry>
        </mxCell>
        <mxCell id="Uw-wxPxYOpoO7MpuVvoR-60" value="(1, n)" style="text;html=1;align=center;verticalAlign=middle;resizable=0;points=[];autosize=1;strokeColor=none;fillColor=none;" parent="WIyWlLk6GJQsqaUBKTNV-1" vertex="1">
          <mxGeometry x="208" y="610" width="50" height="30" as="geometry" />
        </mxCell>
        <mxCell id="Uw-wxPxYOpoO7MpuVvoR-63" value="(n, 1)" style="text;html=1;align=center;verticalAlign=middle;resizable=0;points=[];autosize=1;strokeColor=none;fillColor=none;" parent="WIyWlLk6GJQsqaUBKTNV-1" vertex="1">
          <mxGeometry x="380" y="610" width="50" height="30" as="geometry" />
        </mxCell>
        <mxCell id="Uw-wxPxYOpoO7MpuVvoR-65" value="tb_produtos" style="swimlane;fontStyle=0;align=center;verticalAlign=top;childLayout=stackLayout;horizontal=1;startSize=26;horizontalStack=0;resizeParent=1;resizeLast=0;collapsible=1;marginBottom=0;rounded=0;shadow=0;strokeWidth=1;fontFamily=Arial;" parent="WIyWlLk6GJQsqaUBKTNV-1" vertex="1">
          <mxGeometry x="820" y="470" width="200" height="310" as="geometry">
            <mxRectangle x="230" y="140" width="160" height="26" as="alternateBounds" />
          </mxGeometry>
        </mxCell>
        <mxCell id="Uw-wxPxYOpoO7MpuVvoR-66" value="- codproduto: INT" style="text;align=left;verticalAlign=top;spacingLeft=4;spacingRight=4;overflow=hidden;rotatable=0;points=[[0,0.5],[1,0.5]];portConstraint=eastwest;fontFamily=Arial;" parent="Uw-wxPxYOpoO7MpuVvoR-65" vertex="1">
          <mxGeometry y="26" width="200" height="26" as="geometry" />
        </mxCell>
        <mxCell id="Uw-wxPxYOpoO7MpuVvoR-67" value="+ nomeprod: VARCHAR (60)" style="text;align=left;verticalAlign=top;spacingLeft=4;spacingRight=4;overflow=hidden;rotatable=0;points=[[0,0.5],[1,0.5]];portConstraint=eastwest;rounded=0;shadow=0;html=0;fontFamily=Arial;" parent="Uw-wxPxYOpoO7MpuVvoR-65" vertex="1">
          <mxGeometry y="52" width="200" height="26" as="geometry" />
        </mxCell>
        <mxCell id="Uw-wxPxYOpoO7MpuVvoR-68" value="+ precoprod: FLOAT (5,2)" style="text;align=left;verticalAlign=top;spacingLeft=4;spacingRight=4;overflow=hidden;rotatable=0;points=[[0,0.5],[1,0.5]];portConstraint=eastwest;rounded=0;shadow=0;html=0;fontFamily=Arial;" parent="Uw-wxPxYOpoO7MpuVvoR-65" vertex="1">
          <mxGeometry y="78" width="200" height="26" as="geometry" />
        </mxCell>
        <mxCell id="Uw-wxPxYOpoO7MpuVvoR-69" value="&amp;nbsp;+ tamanhoprod: FLOAT (4,2)" style="text;html=1;align=left;verticalAlign=middle;resizable=0;points=[];autosize=1;strokeColor=none;fillColor=none;" parent="Uw-wxPxYOpoO7MpuVvoR-65" vertex="1">
          <mxGeometry y="104" width="200" height="30" as="geometry" />
        </mxCell>
        <mxCell id="Uw-wxPxYOpoO7MpuVvoR-71" value="&amp;nbsp;+ pesoprod: FLOAT (5,3)" style="text;html=1;align=left;verticalAlign=middle;resizable=0;points=[];autosize=1;strokeColor=none;fillColor=none;" parent="Uw-wxPxYOpoO7MpuVvoR-65" vertex="1">
          <mxGeometry y="134" width="200" height="30" as="geometry" />
        </mxCell>
        <mxCell id="Uw-wxPxYOpoO7MpuVvoR-72" value="&amp;nbsp;+ descricaocat: VARCHAR (255)" style="text;html=1;align=left;verticalAlign=middle;resizable=0;points=[];autosize=1;strokeColor=none;fillColor=none;" parent="Uw-wxPxYOpoO7MpuVvoR-65" vertex="1">
          <mxGeometry y="164" width="200" height="30" as="geometry" />
        </mxCell>
        <mxCell id="Uw-wxPxYOpoO7MpuVvoR-74" value="&amp;nbsp;- ativo: VARCHAR (1)" style="text;html=1;align=left;verticalAlign=middle;resizable=0;points=[];autosize=1;strokeColor=none;fillColor=none;" parent="Uw-wxPxYOpoO7MpuVvoR-65" vertex="1">
          <mxGeometry y="194" width="200" height="30" as="geometry" />
        </mxCell>
        <mxCell id="Uw-wxPxYOpoO7MpuVvoR-73" value="&amp;nbsp;- fk_codcategorias: INT&lt;span style=&quot;white-space: pre;&quot;&gt;&#x9;&lt;/span&gt;" style="text;html=1;align=left;verticalAlign=middle;resizable=0;points=[];autosize=1;strokeColor=none;fillColor=none;" parent="Uw-wxPxYOpoO7MpuVvoR-65" vertex="1">
          <mxGeometry y="224" width="200" height="30" as="geometry" />
        </mxCell>
        <mxCell id="Uw-wxPxYOpoO7MpuVvoR-75" value="" style="line;html=1;strokeWidth=1;align=left;verticalAlign=middle;spacingTop=-1;spacingLeft=3;spacingRight=3;rotatable=0;labelPosition=right;points=[];portConstraint=eastwest;fontFamily=Arial;" parent="Uw-wxPxYOpoO7MpuVvoR-65" vertex="1">
          <mxGeometry y="254" width="200" height="20" as="geometry" />
        </mxCell>
        <mxCell id="Uw-wxPxYOpoO7MpuVvoR-76" value="Purchase Parking Pass" style="text;align=left;verticalAlign=top;spacingLeft=4;spacingRight=4;overflow=hidden;rotatable=0;points=[[0,0.5],[1,0.5]];portConstraint=eastwest;fontFamily=Arial;" parent="Uw-wxPxYOpoO7MpuVvoR-65" vertex="1">
          <mxGeometry y="274" width="200" height="32" as="geometry" />
        </mxCell>
        <mxCell id="Uw-wxPxYOpoO7MpuVvoR-79" value="" style="endArrow=open;shadow=0;strokeWidth=1;rounded=0;endFill=1;edgeStyle=elbowEdgeStyle;elbow=vertical;fontFamily=Arial;exitX=-0.008;exitY=0.137;exitDx=0;exitDy=0;exitPerimeter=0;" parent="WIyWlLk6GJQsqaUBKTNV-1" source="Uw-wxPxYOpoO7MpuVvoR-72" target="Uw-wxPxYOpoO7MpuVvoR-44" edge="1">
          <mxGeometry x="0.5" y="41" relative="1" as="geometry">
            <mxPoint x="540" y="490.41" as="sourcePoint" />
            <mxPoint x="620" y="640" as="targetPoint" />
            <mxPoint x="-40" y="32" as="offset" />
          </mxGeometry>
        </mxCell>
        <mxCell id="Uw-wxPxYOpoO7MpuVvoR-80" value="" style="resizable=0;align=left;verticalAlign=bottom;labelBackgroundColor=none;fontSize=12;fontFamily=Arial;" parent="Uw-wxPxYOpoO7MpuVvoR-79" connectable="0" vertex="1">
          <mxGeometry x="-1" relative="1" as="geometry">
            <mxPoint y="4" as="offset" />
          </mxGeometry>
        </mxCell>
        <mxCell id="Uw-wxPxYOpoO7MpuVvoR-82" value="Relátorio para o&lt;br&gt;carrinho de compras" style="text;html=1;resizable=0;points=[];;align=center;verticalAlign=middle;labelBackgroundColor=none;rounded=0;shadow=0;strokeWidth=1;fontSize=12;fontFamily=Arial;" parent="WIyWlLk6GJQsqaUBKTNV-1" vertex="1" connectable="0">
          <mxGeometry x="719.9988235294118" y="620.0023529411766" as="geometry">
            <mxPoint x="-1" y="1" as="offset" />
          </mxGeometry>
        </mxCell>
        <mxCell id="Uw-wxPxYOpoO7MpuVvoR-84" value="(n, 1)" style="text;html=1;align=center;verticalAlign=middle;resizable=0;points=[];autosize=1;strokeColor=none;fillColor=none;" parent="WIyWlLk6GJQsqaUBKTNV-1" vertex="1">
          <mxGeometry x="618" y="610" width="50" height="30" as="geometry" />
        </mxCell>
        <mxCell id="Uw-wxPxYOpoO7MpuVvoR-85" value="(1, n)" style="text;html=1;align=center;verticalAlign=middle;resizable=0;points=[];autosize=1;strokeColor=none;fillColor=none;" parent="WIyWlLk6GJQsqaUBKTNV-1" vertex="1">
          <mxGeometry x="770" y="610" width="50" height="30" as="geometry" />
        </mxCell>
        <mxCell id="89VktyUWKahh6TD7-yZL-11" value="tb_categorias" style="swimlane;fontStyle=0;align=center;verticalAlign=top;childLayout=stackLayout;horizontal=1;startSize=26;horizontalStack=0;resizeParent=1;resizeLast=0;collapsible=1;marginBottom=0;rounded=0;shadow=0;strokeWidth=1;fontFamily=Arial;" vertex="1" parent="WIyWlLk6GJQsqaUBKTNV-1">
          <mxGeometry x="1230" y="560" width="210" height="142" as="geometry">
            <mxRectangle x="550" y="140" width="160" height="26" as="alternateBounds" />
          </mxGeometry>
        </mxCell>
        <mxCell id="89VktyUWKahh6TD7-yZL-12" value="- codcategoria: INT" style="text;align=left;verticalAlign=top;spacingLeft=4;spacingRight=4;overflow=hidden;rotatable=0;points=[[0,0.5],[1,0.5]];portConstraint=eastwest;fontFamily=Arial;" vertex="1" parent="89VktyUWKahh6TD7-yZL-11">
          <mxGeometry y="26" width="210" height="26" as="geometry" />
        </mxCell>
        <mxCell id="89VktyUWKahh6TD7-yZL-13" value="+ descricaocat: VARCHAR (255)" style="text;align=left;verticalAlign=top;spacingLeft=4;spacingRight=4;overflow=hidden;rotatable=0;points=[[0,0.5],[1,0.5]];portConstraint=eastwest;rounded=0;shadow=0;html=0;fontFamily=Arial;" vertex="1" parent="89VktyUWKahh6TD7-yZL-11">
          <mxGeometry y="52" width="210" height="26" as="geometry" />
        </mxCell>
        <mxCell id="89VktyUWKahh6TD7-yZL-15" value="" style="line;html=1;strokeWidth=1;align=left;verticalAlign=middle;spacingTop=-1;spacingLeft=3;spacingRight=3;rotatable=0;labelPosition=right;points=[];portConstraint=eastwest;fontFamily=Arial;" vertex="1" parent="89VktyUWKahh6TD7-yZL-11">
          <mxGeometry y="78" width="210" height="14" as="geometry" />
        </mxCell>
        <mxCell id="89VktyUWKahh6TD7-yZL-16" value="Validate" style="text;align=left;verticalAlign=top;spacingLeft=4;spacingRight=4;overflow=hidden;rotatable=0;points=[[0,0.5],[1,0.5]];portConstraint=eastwest;fontFamily=Arial;" vertex="1" parent="89VktyUWKahh6TD7-yZL-11">
          <mxGeometry y="92" width="210" height="20" as="geometry" />
        </mxCell>
        <mxCell id="89VktyUWKahh6TD7-yZL-17" value="Output As Label" style="text;align=left;verticalAlign=top;spacingLeft=4;spacingRight=4;overflow=hidden;rotatable=0;points=[[0,0.5],[1,0.5]];portConstraint=eastwest;fontFamily=Arial;" vertex="1" parent="89VktyUWKahh6TD7-yZL-11">
          <mxGeometry y="112" width="210" height="26" as="geometry" />
        </mxCell>
        <mxCell id="89VktyUWKahh6TD7-yZL-18" value="" style="endArrow=open;shadow=0;strokeWidth=1;rounded=0;endFill=1;edgeStyle=elbowEdgeStyle;elbow=vertical;fontFamily=Arial;exitX=0;exitY=0.692;exitDx=0;exitDy=0;exitPerimeter=0;" edge="1" parent="WIyWlLk6GJQsqaUBKTNV-1" source="89VktyUWKahh6TD7-yZL-13">
          <mxGeometry x="0.5" y="41" relative="1" as="geometry">
            <mxPoint x="1200" y="650" as="sourcePoint" />
            <mxPoint x="1020" y="630" as="targetPoint" />
            <mxPoint x="-40" y="32" as="offset" />
            <Array as="points" />
          </mxGeometry>
        </mxCell>
        <mxCell id="89VktyUWKahh6TD7-yZL-19" value="" style="resizable=0;align=left;verticalAlign=bottom;labelBackgroundColor=none;fontSize=12;fontFamily=Arial;" connectable="0" vertex="1" parent="89VktyUWKahh6TD7-yZL-18">
          <mxGeometry x="-1" relative="1" as="geometry">
            <mxPoint x="392" y="-11" as="offset" />
          </mxGeometry>
        </mxCell>
        <mxCell id="89VktyUWKahh6TD7-yZL-20" value="(n, 1)" style="text;html=1;align=center;verticalAlign=middle;resizable=0;points=[];autosize=1;strokeColor=none;fillColor=none;" vertex="1" parent="WIyWlLk6GJQsqaUBKTNV-1">
          <mxGeometry x="1020" y="605" width="50" height="30" as="geometry" />
        </mxCell>
        <mxCell id="89VktyUWKahh6TD7-yZL-24" value="(1, n)" style="text;html=1;align=center;verticalAlign=middle;resizable=0;points=[];autosize=1;strokeColor=none;fillColor=none;" vertex="1" parent="WIyWlLk6GJQsqaUBKTNV-1">
          <mxGeometry x="1180" y="605" width="50" height="30" as="geometry" />
        </mxCell>
        <mxCell id="89VktyUWKahh6TD7-yZL-25" value="Categoria do produto&lt;br&gt;adicionado" style="text;html=1;resizable=0;points=[];;align=center;verticalAlign=middle;labelBackgroundColor=none;rounded=0;shadow=0;strokeWidth=1;fontSize=12;fontFamily=Arial;" vertex="1" connectable="0" parent="WIyWlLk6GJQsqaUBKTNV-1">
          <mxGeometry x="1129.9988235294118" y="610.0023529411766" as="geometry">
            <mxPoint x="-1" y="1" as="offset" />
          </mxGeometry>
        </mxCell>
        <mxCell id="89VktyUWKahh6TD7-yZL-26" value="" style="endArrow=open;shadow=0;strokeWidth=1;rounded=0;endFill=1;edgeStyle=elbowEdgeStyle;elbow=vertical;fontFamily=Arial;entryX=0.25;entryY=1;entryDx=0;entryDy=0;" edge="1" parent="WIyWlLk6GJQsqaUBKTNV-1" target="Uw-wxPxYOpoO7MpuVvoR-65">
          <mxGeometry x="0.5" y="41" relative="1" as="geometry">
            <mxPoint x="990" y="880" as="sourcePoint" />
            <mxPoint x="840" y="780" as="targetPoint" />
            <mxPoint x="-40" y="32" as="offset" />
            <Array as="points" />
          </mxGeometry>
        </mxCell>
        <mxCell id="89VktyUWKahh6TD7-yZL-27" value="" style="resizable=0;align=left;verticalAlign=bottom;labelBackgroundColor=none;fontSize=12;fontFamily=Arial;" connectable="0" vertex="1" parent="89VktyUWKahh6TD7-yZL-26">
          <mxGeometry x="-1" relative="1" as="geometry">
            <mxPoint x="392" y="-11" as="offset" />
          </mxGeometry>
        </mxCell>
        <mxCell id="89VktyUWKahh6TD7-yZL-28" value="tb_imagens_prod" style="swimlane;fontStyle=0;align=center;verticalAlign=top;childLayout=stackLayout;horizontal=1;startSize=26;horizontalStack=0;resizeParent=1;resizeLast=0;collapsible=1;marginBottom=0;rounded=0;shadow=0;strokeWidth=1;fontFamily=Arial;" vertex="1" parent="WIyWlLk6GJQsqaUBKTNV-1">
          <mxGeometry x="820" y="880" width="210" height="164" as="geometry">
            <mxRectangle x="550" y="140" width="160" height="26" as="alternateBounds" />
          </mxGeometry>
        </mxCell>
        <mxCell id="89VktyUWKahh6TD7-yZL-29" value="- codimagem_prod: INT" style="text;align=left;verticalAlign=top;spacingLeft=4;spacingRight=4;overflow=hidden;rotatable=0;points=[[0,0.5],[1,0.5]];portConstraint=eastwest;fontFamily=Arial;" vertex="1" parent="89VktyUWKahh6TD7-yZL-28">
          <mxGeometry y="26" width="210" height="26" as="geometry" />
        </mxCell>
        <mxCell id="89VktyUWKahh6TD7-yZL-30" value="+ prodimg: VARCHAR (255)" style="text;align=left;verticalAlign=top;spacingLeft=4;spacingRight=4;overflow=hidden;rotatable=0;points=[[0,0.5],[1,0.5]];portConstraint=eastwest;rounded=0;shadow=0;html=0;fontFamily=Arial;" vertex="1" parent="89VktyUWKahh6TD7-yZL-28">
          <mxGeometry y="52" width="210" height="26" as="geometry" />
        </mxCell>
        <mxCell id="89VktyUWKahh6TD7-yZL-31" value="- fk_codprodutos: INT" style="text;align=left;verticalAlign=top;spacingLeft=4;spacingRight=4;overflow=hidden;rotatable=0;points=[[0,0.5],[1,0.5]];portConstraint=eastwest;rounded=0;shadow=0;html=0;fontFamily=Arial;" vertex="1" parent="89VktyUWKahh6TD7-yZL-28">
          <mxGeometry y="78" width="210" height="26" as="geometry" />
        </mxCell>
        <mxCell id="89VktyUWKahh6TD7-yZL-32" value="" style="line;html=1;strokeWidth=1;align=left;verticalAlign=middle;spacingTop=-1;spacingLeft=3;spacingRight=3;rotatable=0;labelPosition=right;points=[];portConstraint=eastwest;fontFamily=Arial;" vertex="1" parent="89VktyUWKahh6TD7-yZL-28">
          <mxGeometry y="104" width="210" height="14" as="geometry" />
        </mxCell>
        <mxCell id="89VktyUWKahh6TD7-yZL-33" value="Validate" style="text;align=left;verticalAlign=top;spacingLeft=4;spacingRight=4;overflow=hidden;rotatable=0;points=[[0,0.5],[1,0.5]];portConstraint=eastwest;fontFamily=Arial;" vertex="1" parent="89VktyUWKahh6TD7-yZL-28">
          <mxGeometry y="118" width="210" height="20" as="geometry" />
        </mxCell>
        <mxCell id="89VktyUWKahh6TD7-yZL-34" value="Output As Label" style="text;align=left;verticalAlign=top;spacingLeft=4;spacingRight=4;overflow=hidden;rotatable=0;points=[[0,0.5],[1,0.5]];portConstraint=eastwest;fontFamily=Arial;" vertex="1" parent="89VktyUWKahh6TD7-yZL-28">
          <mxGeometry y="138" width="210" height="26" as="geometry" />
        </mxCell>
        <mxCell id="89VktyUWKahh6TD7-yZL-35" value="Imagens do produto&lt;br&gt;adicionado" style="text;html=1;resizable=0;points=[];;align=center;verticalAlign=middle;labelBackgroundColor=none;rounded=0;shadow=0;strokeWidth=1;fontSize=12;fontFamily=Arial;" vertex="1" connectable="0" parent="WIyWlLk6GJQsqaUBKTNV-1">
          <mxGeometry x="939.9988235294118" y="810.0023529411766" as="geometry">
            <mxPoint x="-1" y="1" as="offset" />
          </mxGeometry>
        </mxCell>
        <mxCell id="89VktyUWKahh6TD7-yZL-36" value="(n, 1)" style="text;html=1;align=center;verticalAlign=middle;resizable=0;points=[];autosize=1;strokeColor=none;fillColor=none;" vertex="1" parent="WIyWlLk6GJQsqaUBKTNV-1">
          <mxGeometry x="940" y="850" width="50" height="30" as="geometry" />
        </mxCell>
        <mxCell id="89VktyUWKahh6TD7-yZL-37" value="(1, n)" style="text;html=1;align=center;verticalAlign=middle;resizable=0;points=[];autosize=1;strokeColor=none;fillColor=none;" vertex="1" parent="WIyWlLk6GJQsqaUBKTNV-1">
          <mxGeometry x="820" y="780" width="50" height="30" as="geometry" />
        </mxCell>
      </root>
    </mxGraphModel>
  </diagram>
</mxfile>
